# xmcd CD database file
#
# Track frame offsets:
#	150
#	46739
#	95197
#	128622
#	182058
#	256864
#	275312
#
# Disc length: 4434 seconds
#
# Revision: 0
# Processed by: cddbd v1.5.2PL0 Copyright (c) Steve Scherf et al.
# Submitted via: CDex 1.51
#
DISCID=58115007
DTITLE=Jimmy Smith - Eight Classic Albums CD4
DYEAR=1956
DGENRE=Jazz
TTITLE0=Caravan (At Club Baby Grant Volume 2
TTITLE1=Love Is A Many Splendor Thing
TTITLE2=Get Happy
TTITLE3=It's All Right With Me
TTITLE4=I Let A Song Go Out Of My Heart (A date with Jimmy Smith  Volume 2 - 1957)
TTITLE5=I'M Getting Sentimental Over You
TTITLE6=Groovy Date
EXTD=YEAR: 1956
EXTT0=
EXTT1=
EXTT2=
EXTT3=
EXTT4=
EXTT5=
EXTT6=
PLAYORDER=
